<svg width="17" height="12" viewBox="0 0 17 12" fill="none" xmlns="http://www.w3.org/2000/svg">
<path fill-rule="evenodd" clip-rule="evenodd" d="M8.39705 2.37966C10.6218 2.37977 12.7614 3.26946 14.3738 4.86487C14.4952 4.98804 14.6893 4.98649 14.8089 4.86139L15.9695 3.6423C16.03 3.57885 16.0638 3.4929 16.0633 3.40347C16.0628 3.31405 16.0281 3.22851 15.9668 3.16581C11.7349 -1.05527 5.05855 -1.05527 0.826637 3.16581C0.765335 3.22847 0.730553 3.31397 0.729987 3.4034C0.729422 3.49283 0.76312 3.5788 0.823625 3.6423L1.98457 4.86139C2.10407 4.98668 2.29829 4.98824 2.41963 4.86487C4.03219 3.26936 6.1721 2.37966 8.39705 2.37966ZM8.39705 6.3459C9.6194 6.34582 10.7981 6.81869 11.7042 7.67262C11.8267 7.79381 12.0198 7.79118 12.1393 7.6667L13.2985 6.4476C13.3596 6.38366 13.3934 6.29691 13.3926 6.20677C13.3917 6.11663 13.3561 6.03062 13.2938 5.96798C10.5347 3.29672 6.26176 3.29672 3.5026 5.96798C3.44028 6.03062 3.40472 6.11667 3.4039 6.20684C3.40308 6.29701 3.43707 6.38375 3.49825 6.4476L4.65719 7.6667C4.77665 7.79118 4.9697 7.79381 5.09225 7.67262C5.99772 6.81925 7.17551 6.34642 8.39705 6.3459ZM10.7193 9.01448C10.721 9.10487 10.6869 9.19202 10.6249 9.25535L8.6196 11.3616C8.56082 11.4235 8.48067 11.4583 8.39705 11.4583C8.31343 11.4583 8.23328 11.4235 8.1745 11.3616L6.16886 9.25535C6.10691 9.19197 6.07282 9.1048 6.07466 9.0144C6.0765 8.92401 6.11409 8.83841 6.17857 8.77781C7.45923 7.65045 9.33487 7.65045 10.6155 8.77781C10.68 8.83846 10.7175 8.92408 10.7193 9.01448Z" fill="#1B1B1B"/>
</svg>
