<svg width="16" height="12" viewBox="0 0 16 12" fill="none" xmlns="http://www.w3.org/2000/svg">
<path fill-rule="evenodd" clip-rule="evenodd" d="M14.9 0H13.9C13.3477 0 12.9 0.46637 12.9 1.04167V10.0694C12.9 10.6447 13.3477 11.1111 13.9 11.1111H14.9C15.4522 11.1111 15.9 10.6447 15.9 10.0694V1.04167C15.9 0.46637 15.4522 0 14.9 0ZM9.59998 2.4306H10.6C11.1523 2.4306 11.6 2.89697 11.6 3.47226V10.0695C11.6 10.6448 11.1523 11.1112 10.6 11.1112H9.59998C9.04769 11.1112 8.59998 10.6448 8.59998 10.0695V3.47226C8.59998 2.89697 9.04769 2.4306 9.59998 2.4306ZM6.29999 4.86107H5.29999C4.7477 4.86107 4.29999 5.32744 4.29999 5.90274V10.0694C4.29999 10.6447 4.7477 11.1111 5.29999 11.1111H6.29999C6.85227 11.1111 7.29999 10.6447 7.29999 10.0694V5.90274C7.29999 5.32744 6.85227 4.86107 6.29999 4.86107ZM2 6.94444H1C0.447715 6.94444 0 7.41081 0 7.98611V10.0694C0 10.6447 0.447715 11.1111 1 11.1111H2C2.55228 11.1111 3 10.6447 3 10.0694V7.98611C3 7.41081 2.55228 6.94444 2 6.94444Z" fill="#1B1B1B"/>
<path fill-rule="evenodd" clip-rule="evenodd" d="M14.9 0H13.9C13.3477 0 12.9 0.46637 12.9 1.04167V10.0694C12.9 10.6447 13.3477 11.1111 13.9 11.1111H14.9C15.4522 11.1111 15.9 10.6447 15.9 10.0694V1.04167C15.9 0.46637 15.4522 0 14.9 0ZM9.59998 2.4306H10.6C11.1523 2.4306 11.6 2.89697 11.6 3.47226V10.0695C11.6 10.6448 11.1523 11.1112 10.6 11.1112H9.59998C9.04769 11.1112 8.59998 10.6448 8.59998 10.0695V3.47226C8.59998 2.89697 9.04769 2.4306 9.59998 2.4306ZM6.29999 4.86107H5.29999C4.7477 4.86107 4.29999 5.32744 4.29999 5.90274V10.0694C4.29999 10.6447 4.7477 11.1111 5.29999 11.1111H6.29999C6.85227 11.1111 7.29999 10.6447 7.29999 10.0694V5.90274C7.29999 5.32744 6.85227 4.86107 6.29999 4.86107ZM2 6.94444H1C0.447715 6.94444 0 7.41081 0 7.98611V10.0694C0 10.6447 0.447715 11.1111 1 11.1111H2C2.55228 11.1111 3 10.6447 3 10.0694V7.98611C3 7.41081 2.55228 6.94444 2 6.94444Z" fill="black" fill-opacity="0.2"/>
</svg>
